# xmcd
#
# Track frame offsets:
#	150
#	16467
#	29222
#	40087
#	54410
#	65267
#	83035
#	99780
#	110090
#	119407
#
# Disc length: 1762 seconds
#
# Revision: 4
# Processed by: cddbd v1.5.1PL0 Copyright (c) Steve Scherf et al.
# Submitted via: CDmax 2.0
#
DISCID=7e06e00a
DTITLE=Redneck Style - Christmas Classics II
DYEAR=2000
DGENRE=Christmas
TTITLE0=Santa Got a D. W. I.
TTITLE1=You're a Mean One Mr. Grinch
TTITLE2=Grandma's Revenge
TTITLE3=Randolph the Brown-Nosed Reindeer
TTITLE4=The Schmidt House
TTITLE5=Grandpa Shot a Reindeer
TTITLE6=A Cartridge In a Bare Tree
TTITLE7=Christmas Cards
TTITLE8=Up On the House Top
TTITLE9=The Night Before Christmas
EXTD=LABEL =Dart Distributing, LLC\nID =9002\nUPC =044921-900223\nCOPYRIGH
EXTD=T =2000
EXTT0=
EXTT1=
EXTT2=
EXTT3=
EXTT4=
EXTT5=
EXTT6=
EXTT7=
EXTT8=
EXTT9=
PLAYORDER=
